<mxfile host="app.diagrams.net" agent="Mozilla/5.0 (Windows NT 10.0; Win64; x64) AppleWebKit/537.36 (KHTML, like Gecko) Chrome/138.0.0.0 Safari/537.36 Edg/138.0.0.0" version="28.0.5">
  <diagram name="第 1 页" id="L_r2BCdUvFLrKTB9oKeo">
    <mxGraphModel dx="2102" dy="1376" grid="1" gridSize="10" guides="1" tooltips="1" connect="1" arrows="1" fold="1" page="1" pageScale="1" pageWidth="2336" pageHeight="1654" math="0" shadow="0">
      <root>
        <mxCell id="0" />
        <mxCell id="1" parent="0" />
        <mxCell id="zT2nQ4EYJUD7dQ0RjYFr-1" style="edgeStyle=orthogonalEdgeStyle;rounded=0;orthogonalLoop=1;jettySize=auto;html=1;entryX=0.5;entryY=0;entryDx=0;entryDy=0;exitX=0.5;exitY=1;exitDx=0;exitDy=0;" edge="1" parent="1" source="O2EC_n9IJ33S0w39dAJx-1" target="O2EC_n9IJ33S0w39dAJx-2">
          <mxGeometry relative="1" as="geometry" />
        </mxCell>
        <mxCell id="zT2nQ4EYJUD7dQ0RjYFr-2" style="edgeStyle=orthogonalEdgeStyle;rounded=0;orthogonalLoop=1;jettySize=auto;html=1;entryX=0.5;entryY=0;entryDx=0;entryDy=0;exitX=0.5;exitY=1;exitDx=0;exitDy=0;" edge="1" parent="1" source="O2EC_n9IJ33S0w39dAJx-1" target="O2EC_n9IJ33S0w39dAJx-4">
          <mxGeometry relative="1" as="geometry" />
        </mxCell>
        <mxCell id="zT2nQ4EYJUD7dQ0RjYFr-4" style="edgeStyle=orthogonalEdgeStyle;rounded=0;orthogonalLoop=1;jettySize=auto;html=1;" edge="1" parent="1" source="O2EC_n9IJ33S0w39dAJx-1" target="O2EC_n9IJ33S0w39dAJx-5">
          <mxGeometry relative="1" as="geometry" />
        </mxCell>
        <mxCell id="zT2nQ4EYJUD7dQ0RjYFr-6" style="edgeStyle=orthogonalEdgeStyle;rounded=0;orthogonalLoop=1;jettySize=auto;html=1;entryX=0.5;entryY=0;entryDx=0;entryDy=0;exitX=0.5;exitY=1;exitDx=0;exitDy=0;" edge="1" parent="1" source="O2EC_n9IJ33S0w39dAJx-1" target="O2EC_n9IJ33S0w39dAJx-3">
          <mxGeometry relative="1" as="geometry" />
        </mxCell>
        <mxCell id="zT2nQ4EYJUD7dQ0RjYFr-8" style="edgeStyle=orthogonalEdgeStyle;rounded=0;orthogonalLoop=1;jettySize=auto;html=1;entryX=0.5;entryY=0;entryDx=0;entryDy=0;" edge="1" parent="1" source="O2EC_n9IJ33S0w39dAJx-1" target="O2EC_n9IJ33S0w39dAJx-6">
          <mxGeometry relative="1" as="geometry" />
        </mxCell>
        <mxCell id="O2EC_n9IJ33S0w39dAJx-1" value="&lt;font style=&quot;font-size: 20px&quot;&gt;基于XGBoost的地铁智慧监控管理与其周边共享单车调度系统&lt;/font&gt;" style="rounded=0;whiteSpace=wrap;html=1;strokeWidth=2;" parent="1" vertex="1">
          <mxGeometry x="900" y="250" width="570" height="50" as="geometry" />
        </mxCell>
        <mxCell id="zT2nQ4EYJUD7dQ0RjYFr-9" style="edgeStyle=orthogonalEdgeStyle;rounded=0;orthogonalLoop=1;jettySize=auto;html=1;" edge="1" parent="1" source="O2EC_n9IJ33S0w39dAJx-2" target="O2EC_n9IJ33S0w39dAJx-7">
          <mxGeometry relative="1" as="geometry" />
        </mxCell>
        <mxCell id="zT2nQ4EYJUD7dQ0RjYFr-10" style="edgeStyle=orthogonalEdgeStyle;rounded=0;orthogonalLoop=1;jettySize=auto;html=1;entryX=0.5;entryY=0;entryDx=0;entryDy=0;" edge="1" parent="1" source="O2EC_n9IJ33S0w39dAJx-2" target="O2EC_n9IJ33S0w39dAJx-9">
          <mxGeometry relative="1" as="geometry" />
        </mxCell>
        <mxCell id="O2EC_n9IJ33S0w39dAJx-2" value="&lt;font style=&quot;font-size: 20px&quot;&gt;用户权限管理&lt;/font&gt;" style="rounded=0;whiteSpace=wrap;html=1;strokeWidth=2;" parent="1" vertex="1">
          <mxGeometry x="290" y="410" width="150" height="50" as="geometry" />
        </mxCell>
        <mxCell id="zT2nQ4EYJUD7dQ0RjYFr-38" style="edgeStyle=orthogonalEdgeStyle;rounded=0;orthogonalLoop=1;jettySize=auto;html=1;entryX=0;entryY=0.5;entryDx=0;entryDy=0;" edge="1" parent="1" source="O2EC_n9IJ33S0w39dAJx-3" target="O2EC_n9IJ33S0w39dAJx-28">
          <mxGeometry relative="1" as="geometry" />
        </mxCell>
        <mxCell id="zT2nQ4EYJUD7dQ0RjYFr-39" style="edgeStyle=orthogonalEdgeStyle;rounded=0;orthogonalLoop=1;jettySize=auto;html=1;entryX=0;entryY=0.5;entryDx=0;entryDy=0;" edge="1" parent="1" source="O2EC_n9IJ33S0w39dAJx-3" target="O2EC_n9IJ33S0w39dAJx-29">
          <mxGeometry relative="1" as="geometry" />
        </mxCell>
        <mxCell id="O2EC_n9IJ33S0w39dAJx-3" value="&lt;span style=&quot;font-size: 20px&quot;&gt;后台管理&lt;/span&gt;" style="rounded=0;whiteSpace=wrap;html=1;strokeWidth=2;" parent="1" vertex="1">
          <mxGeometry x="1850" y="410" width="150" height="50" as="geometry" />
        </mxCell>
        <mxCell id="zT2nQ4EYJUD7dQ0RjYFr-13" style="edgeStyle=orthogonalEdgeStyle;rounded=0;orthogonalLoop=1;jettySize=auto;html=1;entryX=0.5;entryY=0;entryDx=0;entryDy=0;" edge="1" parent="1" source="O2EC_n9IJ33S0w39dAJx-4" target="O2EC_n9IJ33S0w39dAJx-12">
          <mxGeometry relative="1" as="geometry" />
        </mxCell>
        <mxCell id="zT2nQ4EYJUD7dQ0RjYFr-14" style="edgeStyle=orthogonalEdgeStyle;rounded=0;orthogonalLoop=1;jettySize=auto;html=1;entryX=0.5;entryY=0;entryDx=0;entryDy=0;" edge="1" parent="1" source="O2EC_n9IJ33S0w39dAJx-4" target="O2EC_n9IJ33S0w39dAJx-13">
          <mxGeometry relative="1" as="geometry" />
        </mxCell>
        <mxCell id="O2EC_n9IJ33S0w39dAJx-4" value="&lt;font style=&quot;font-size: 20px&quot;&gt;地图控制台&lt;/font&gt;" style="rounded=0;whiteSpace=wrap;html=1;strokeWidth=2;" parent="1" vertex="1">
          <mxGeometry x="690" y="410" width="160" height="50" as="geometry" />
        </mxCell>
        <mxCell id="zT2nQ4EYJUD7dQ0RjYFr-29" style="edgeStyle=orthogonalEdgeStyle;rounded=0;orthogonalLoop=1;jettySize=auto;html=1;entryX=0.5;entryY=0;entryDx=0;entryDy=0;" edge="1" parent="1" source="O2EC_n9IJ33S0w39dAJx-5" target="O2EC_n9IJ33S0w39dAJx-22">
          <mxGeometry relative="1" as="geometry" />
        </mxCell>
        <mxCell id="zT2nQ4EYJUD7dQ0RjYFr-30" style="edgeStyle=orthogonalEdgeStyle;rounded=0;orthogonalLoop=1;jettySize=auto;html=1;entryX=0.5;entryY=0;entryDx=0;entryDy=0;" edge="1" parent="1" source="O2EC_n9IJ33S0w39dAJx-5" target="O2EC_n9IJ33S0w39dAJx-23">
          <mxGeometry relative="1" as="geometry" />
        </mxCell>
        <mxCell id="O2EC_n9IJ33S0w39dAJx-5" value="&lt;font style=&quot;font-size: 20px&quot;&gt;单车调度规划功能&lt;/font&gt;" style="rounded=0;whiteSpace=wrap;html=1;strokeWidth=2;" parent="1" vertex="1">
          <mxGeometry x="1460" y="410" width="190" height="50" as="geometry" />
        </mxCell>
        <mxCell id="zT2nQ4EYJUD7dQ0RjYFr-24" style="edgeStyle=orthogonalEdgeStyle;rounded=0;orthogonalLoop=1;jettySize=auto;html=1;exitX=0.5;exitY=1;exitDx=0;exitDy=0;entryX=0;entryY=0.5;entryDx=0;entryDy=0;" edge="1" parent="1" source="O2EC_n9IJ33S0w39dAJx-6" target="O2EC_n9IJ33S0w39dAJx-19">
          <mxGeometry relative="1" as="geometry" />
        </mxCell>
        <mxCell id="zT2nQ4EYJUD7dQ0RjYFr-25" style="edgeStyle=orthogonalEdgeStyle;rounded=0;orthogonalLoop=1;jettySize=auto;html=1;entryX=0;entryY=0.5;entryDx=0;entryDy=0;" edge="1" parent="1" source="O2EC_n9IJ33S0w39dAJx-6" target="O2EC_n9IJ33S0w39dAJx-20">
          <mxGeometry relative="1" as="geometry" />
        </mxCell>
        <mxCell id="zT2nQ4EYJUD7dQ0RjYFr-26" style="edgeStyle=orthogonalEdgeStyle;rounded=0;orthogonalLoop=1;jettySize=auto;html=1;entryX=0;entryY=0.5;entryDx=0;entryDy=0;" edge="1" parent="1" source="O2EC_n9IJ33S0w39dAJx-6" target="O2EC_n9IJ33S0w39dAJx-21">
          <mxGeometry relative="1" as="geometry" />
        </mxCell>
        <mxCell id="zT2nQ4EYJUD7dQ0RjYFr-27" style="edgeStyle=orthogonalEdgeStyle;rounded=0;orthogonalLoop=1;jettySize=auto;html=1;entryX=0;entryY=0.5;entryDx=0;entryDy=0;exitX=0.5;exitY=1;exitDx=0;exitDy=0;" edge="1" parent="1" source="O2EC_n9IJ33S0w39dAJx-6" target="656GvTyZeaLxTbCeaER_-4">
          <mxGeometry relative="1" as="geometry" />
        </mxCell>
        <mxCell id="O2EC_n9IJ33S0w39dAJx-6" value="&lt;font style=&quot;font-size: 20px&quot;&gt;数据分析功能&lt;/font&gt;" style="rounded=0;whiteSpace=wrap;html=1;strokeWidth=2;" parent="1" vertex="1">
          <mxGeometry x="1090" y="410" width="190" height="50" as="geometry" />
        </mxCell>
        <mxCell id="O2EC_n9IJ33S0w39dAJx-7" value="&lt;font style=&quot;font-size: 20px&quot;&gt;登录注册认证&lt;/font&gt;" style="rounded=0;whiteSpace=wrap;html=1;strokeWidth=2;" parent="1" vertex="1">
          <mxGeometry x="160" y="530" width="150" height="50" as="geometry" />
        </mxCell>
        <mxCell id="zT2nQ4EYJUD7dQ0RjYFr-11" style="edgeStyle=orthogonalEdgeStyle;rounded=0;orthogonalLoop=1;jettySize=auto;html=1;entryX=0;entryY=0.5;entryDx=0;entryDy=0;" edge="1" parent="1" source="O2EC_n9IJ33S0w39dAJx-9" target="O2EC_n9IJ33S0w39dAJx-10">
          <mxGeometry relative="1" as="geometry" />
        </mxCell>
        <mxCell id="zT2nQ4EYJUD7dQ0RjYFr-12" style="edgeStyle=orthogonalEdgeStyle;rounded=0;orthogonalLoop=1;jettySize=auto;html=1;entryX=0;entryY=0.5;entryDx=0;entryDy=0;" edge="1" parent="1" source="O2EC_n9IJ33S0w39dAJx-9" target="O2EC_n9IJ33S0w39dAJx-11">
          <mxGeometry relative="1" as="geometry" />
        </mxCell>
        <mxCell id="O2EC_n9IJ33S0w39dAJx-9" value="&lt;font style=&quot;font-size: 20px&quot;&gt;个人信息管理&lt;/font&gt;" style="rounded=0;whiteSpace=wrap;html=1;strokeWidth=2;" parent="1" vertex="1">
          <mxGeometry x="370" y="530" width="150" height="50" as="geometry" />
        </mxCell>
        <mxCell id="O2EC_n9IJ33S0w39dAJx-10" value="&lt;font style=&quot;font-size: 20px&quot;&gt;查&lt;/font&gt;&lt;div&gt;&lt;font style=&quot;font-size: 20px&quot;&gt;看&lt;/font&gt;&lt;/div&gt;&lt;div&gt;&lt;font style=&quot;font-size: 20px&quot;&gt;个&lt;/font&gt;&lt;/div&gt;&lt;div&gt;&lt;font style=&quot;font-size: 20px&quot;&gt;人&lt;/font&gt;&lt;/div&gt;&lt;div&gt;&lt;font style=&quot;font-size: 20px&quot;&gt;身&lt;/font&gt;&lt;/div&gt;&lt;div&gt;&lt;font style=&quot;font-size: 20px&quot;&gt;份&lt;/font&gt;&lt;/div&gt;&lt;div&gt;&lt;font style=&quot;font-size: 20px&quot;&gt;信&lt;/font&gt;&lt;/div&gt;&lt;div&gt;&lt;font style=&quot;font-size: 20px&quot;&gt;息&lt;/font&gt;&lt;/div&gt;" style="rounded=0;whiteSpace=wrap;html=1;strokeWidth=2;direction=south;" parent="1" vertex="1">
          <mxGeometry x="370" y="680" width="50" height="290" as="geometry" />
        </mxCell>
        <mxCell id="O2EC_n9IJ33S0w39dAJx-11" value="&lt;font style=&quot;font-size: 20px&quot;&gt;修&lt;/font&gt;&lt;div&gt;&lt;font style=&quot;font-size: 20px&quot;&gt;改&lt;/font&gt;&lt;/div&gt;&lt;div&gt;&lt;font style=&quot;font-size: 20px&quot;&gt;个&lt;/font&gt;&lt;/div&gt;&lt;div&gt;&lt;font style=&quot;font-size: 20px&quot;&gt;人&lt;/font&gt;&lt;/div&gt;&lt;div&gt;&lt;font style=&quot;font-size: 20px&quot;&gt;信&lt;/font&gt;&lt;/div&gt;&lt;div&gt;&lt;font style=&quot;font-size: 20px&quot;&gt;息&lt;/font&gt;&lt;/div&gt;" style="rounded=0;whiteSpace=wrap;html=1;strokeWidth=2;direction=south;" parent="1" vertex="1">
          <mxGeometry x="470" y="682" width="50" height="290" as="geometry" />
        </mxCell>
        <mxCell id="zT2nQ4EYJUD7dQ0RjYFr-15" style="edgeStyle=orthogonalEdgeStyle;rounded=0;orthogonalLoop=1;jettySize=auto;html=1;entryX=0;entryY=0.5;entryDx=0;entryDy=0;" edge="1" parent="1" source="O2EC_n9IJ33S0w39dAJx-12" target="O2EC_n9IJ33S0w39dAJx-14">
          <mxGeometry relative="1" as="geometry" />
        </mxCell>
        <mxCell id="zT2nQ4EYJUD7dQ0RjYFr-16" style="edgeStyle=orthogonalEdgeStyle;rounded=0;orthogonalLoop=1;jettySize=auto;html=1;entryX=0;entryY=0.5;entryDx=0;entryDy=0;" edge="1" parent="1" source="O2EC_n9IJ33S0w39dAJx-12" target="O2EC_n9IJ33S0w39dAJx-15">
          <mxGeometry relative="1" as="geometry" />
        </mxCell>
        <mxCell id="O2EC_n9IJ33S0w39dAJx-12" value="&lt;font style=&quot;font-size: 20px&quot;&gt;地铁信息全览&lt;/font&gt;" style="rounded=0;whiteSpace=wrap;html=1;strokeWidth=2;" parent="1" vertex="1">
          <mxGeometry x="570" y="530" width="150" height="50" as="geometry" />
        </mxCell>
        <mxCell id="zT2nQ4EYJUD7dQ0RjYFr-17" style="edgeStyle=orthogonalEdgeStyle;rounded=0;orthogonalLoop=1;jettySize=auto;html=1;entryX=0;entryY=0.5;entryDx=0;entryDy=0;" edge="1" parent="1" source="O2EC_n9IJ33S0w39dAJx-13" target="O2EC_n9IJ33S0w39dAJx-18">
          <mxGeometry relative="1" as="geometry" />
        </mxCell>
        <mxCell id="zT2nQ4EYJUD7dQ0RjYFr-18" style="edgeStyle=orthogonalEdgeStyle;rounded=0;orthogonalLoop=1;jettySize=auto;html=1;entryX=0;entryY=0.5;entryDx=0;entryDy=0;" edge="1" parent="1" source="O2EC_n9IJ33S0w39dAJx-13" target="O2EC_n9IJ33S0w39dAJx-80">
          <mxGeometry relative="1" as="geometry" />
        </mxCell>
        <mxCell id="zT2nQ4EYJUD7dQ0RjYFr-19" style="edgeStyle=orthogonalEdgeStyle;rounded=0;orthogonalLoop=1;jettySize=auto;html=1;entryX=0;entryY=0.5;entryDx=0;entryDy=0;" edge="1" parent="1" source="O2EC_n9IJ33S0w39dAJx-13" target="O2EC_n9IJ33S0w39dAJx-17">
          <mxGeometry relative="1" as="geometry" />
        </mxCell>
        <mxCell id="O2EC_n9IJ33S0w39dAJx-13" value="&lt;span style=&quot;font-size: 20px&quot;&gt;站点信息详情&lt;/span&gt;" style="rounded=0;whiteSpace=wrap;html=1;strokeWidth=2;" parent="1" vertex="1">
          <mxGeometry x="800" y="530" width="150" height="50" as="geometry" />
        </mxCell>
        <mxCell id="O2EC_n9IJ33S0w39dAJx-14" value="&lt;span style=&quot;font-size: 20px&quot;&gt;导&lt;/span&gt;&lt;div&gt;&lt;span style=&quot;font-size: 20px&quot;&gt;航&lt;/span&gt;&lt;/div&gt;&lt;div&gt;&lt;span style=&quot;font-size: 20px&quot;&gt;功&lt;/span&gt;&lt;/div&gt;&lt;div&gt;&lt;span style=&quot;font-size: 20px&quot;&gt;能&lt;/span&gt;&lt;/div&gt;" style="rounded=0;whiteSpace=wrap;html=1;strokeWidth=2;direction=south;" parent="1" vertex="1">
          <mxGeometry x="570" y="680" width="50" height="288" as="geometry" />
        </mxCell>
        <mxCell id="O2EC_n9IJ33S0w39dAJx-15" value="&lt;span style=&quot;font-size: 20px&quot;&gt;地&lt;/span&gt;&lt;div&gt;&lt;span style=&quot;font-size: 20px&quot;&gt;铁&lt;/span&gt;&lt;/div&gt;&lt;div&gt;&lt;span style=&quot;font-size: 20px&quot;&gt;人&lt;/span&gt;&lt;/div&gt;&lt;div&gt;&lt;span style=&quot;font-size: 20px&quot;&gt;流&lt;/span&gt;&lt;/div&gt;&lt;div&gt;&lt;span style=&quot;font-size: 20px&quot;&gt;量&lt;/span&gt;&lt;/div&gt;&lt;div&gt;&lt;span style=&quot;font-size: 20px; background-color: transparent; color: light-dark(rgb(0, 0, 0), rgb(255, 255, 255));&quot;&gt;分&lt;/span&gt;&lt;/div&gt;&lt;div&gt;&lt;span style=&quot;font-size: 20px; background-color: transparent; color: light-dark(rgb(0, 0, 0), rgb(255, 255, 255));&quot;&gt;布&lt;/span&gt;&lt;/div&gt;&lt;div&gt;&lt;span style=&quot;font-size: 20px; background-color: transparent; color: light-dark(rgb(0, 0, 0), rgb(255, 255, 255));&quot;&gt;热&lt;/span&gt;&lt;/div&gt;&lt;div&gt;&lt;span style=&quot;font-size: 20px; background-color: transparent; color: light-dark(rgb(0, 0, 0), rgb(255, 255, 255));&quot;&gt;力&lt;/span&gt;&lt;/div&gt;&lt;div&gt;&lt;span style=&quot;font-size: 20px; background-color: transparent; color: light-dark(rgb(0, 0, 0), rgb(255, 255, 255));&quot;&gt;图&lt;/span&gt;&lt;/div&gt;" style="rounded=0;whiteSpace=wrap;html=1;strokeWidth=2;direction=south;" parent="1" vertex="1">
          <mxGeometry x="670" y="680" width="50" height="290" as="geometry" />
        </mxCell>
        <mxCell id="O2EC_n9IJ33S0w39dAJx-17" value="&lt;span style=&quot;font-size: 20px&quot;&gt;地&lt;/span&gt;&lt;div&gt;&lt;span style=&quot;font-size: 20px&quot;&gt;铁&lt;/span&gt;&lt;/div&gt;&lt;div&gt;&lt;span style=&quot;font-size: 20px&quot;&gt;人&lt;/span&gt;&lt;/div&gt;&lt;div&gt;&lt;span style=&quot;font-size: 20px&quot;&gt;流&lt;/span&gt;&lt;/div&gt;&lt;div&gt;&lt;span style=&quot;font-size: 20px&quot;&gt;量&lt;/span&gt;&lt;/div&gt;&lt;div&gt;&lt;span style=&quot;font-size: 20px&quot;&gt;预&lt;/span&gt;&lt;/div&gt;&lt;div&gt;&lt;span style=&quot;font-size: 20px&quot;&gt;测&lt;/span&gt;&lt;/div&gt;&lt;div&gt;&lt;span style=&quot;background-color: transparent; color: light-dark(rgb(0, 0, 0), rgb(255, 255, 255)); font-size: 20px;&quot;&gt;情&lt;/span&gt;&lt;/div&gt;&lt;div&gt;&lt;span style=&quot;background-color: transparent; color: light-dark(rgb(0, 0, 0), rgb(255, 255, 255)); font-size: 20px;&quot;&gt;况&lt;/span&gt;&lt;/div&gt;&lt;div&gt;&lt;span style=&quot;background-color: transparent; color: light-dark(rgb(0, 0, 0), rgb(255, 255, 255)); font-size: 20px;&quot;&gt;展&lt;/span&gt;&lt;/div&gt;&lt;div&gt;&lt;span style=&quot;font-size: 20px&quot;&gt;示&lt;/span&gt;&lt;/div&gt;" style="rounded=0;whiteSpace=wrap;html=1;strokeWidth=2;direction=south;" parent="1" vertex="1">
          <mxGeometry x="920" y="680" width="50" height="300" as="geometry" />
        </mxCell>
        <mxCell id="O2EC_n9IJ33S0w39dAJx-18" value="&lt;span style=&quot;font-size: 20px&quot;&gt;站&lt;/span&gt;&lt;div&gt;&lt;span style=&quot;font-size: 20px&quot;&gt;点&lt;/span&gt;&lt;/div&gt;&lt;div&gt;&lt;span style=&quot;font-size: 20px&quot;&gt;历&lt;/span&gt;&lt;/div&gt;&lt;div&gt;&lt;span style=&quot;font-size: 20px&quot;&gt;史&lt;/span&gt;&lt;/div&gt;&lt;div&gt;&lt;span style=&quot;font-size: 20px&quot;&gt;信&lt;/span&gt;&lt;/div&gt;&lt;div&gt;&lt;span style=&quot;font-size: 20px&quot;&gt;息&lt;/span&gt;&lt;/div&gt;&lt;div&gt;&lt;span style=&quot;font-size: 20px&quot;&gt;统&lt;/span&gt;&lt;/div&gt;&lt;div&gt;&lt;span style=&quot;font-size: 20px&quot;&gt;计&lt;/span&gt;&lt;/div&gt;" style="rounded=0;whiteSpace=wrap;html=1;strokeWidth=2;direction=south;" parent="1" vertex="1">
          <mxGeometry x="780" y="680" width="50" height="300" as="geometry" />
        </mxCell>
        <mxCell id="O2EC_n9IJ33S0w39dAJx-19" value="&lt;font style=&quot;font-size: 20px&quot;&gt;站&lt;/font&gt;&lt;div&gt;&lt;font style=&quot;font-size: 20px&quot;&gt;点&lt;/font&gt;&lt;/div&gt;&lt;div&gt;&lt;font style=&quot;font-size: 20px&quot;&gt;客&lt;/font&gt;&lt;/div&gt;&lt;div&gt;&lt;font style=&quot;font-size: 20px&quot;&gt;流&lt;/font&gt;&lt;/div&gt;&lt;div&gt;&lt;font style=&quot;font-size: 20px&quot;&gt;量&lt;/font&gt;&lt;/div&gt;&lt;div&gt;&lt;font style=&quot;font-size: 20px&quot;&gt;排&lt;/font&gt;&lt;/div&gt;&lt;div&gt;&lt;font style=&quot;font-size: 20px&quot;&gt;名&lt;/font&gt;&lt;/div&gt;&lt;div&gt;&lt;font style=&quot;font-size: 20px&quot;&gt;展&lt;/font&gt;&lt;/div&gt;&lt;div&gt;&lt;font style=&quot;font-size: 20px&quot;&gt;示&lt;/font&gt;&lt;/div&gt;" style="rounded=0;whiteSpace=wrap;html=1;strokeWidth=2;direction=south;" parent="1" vertex="1">
          <mxGeometry x="1040" y="590" width="50" height="300" as="geometry" />
        </mxCell>
        <mxCell id="O2EC_n9IJ33S0w39dAJx-20" value="&lt;span style=&quot;font-size: 20px;&quot;&gt;地&lt;/span&gt;&lt;div&gt;&lt;span style=&quot;font-size: 20px;&quot;&gt;铁&lt;/span&gt;&lt;/div&gt;&lt;div&gt;&lt;span style=&quot;font-size: 20px;&quot;&gt;网&lt;/span&gt;&lt;br&gt;&lt;div&gt;&lt;font style=&quot;font-size: 20px&quot;&gt;客&lt;/font&gt;&lt;/div&gt;&lt;div&gt;&lt;font style=&quot;font-size: 20px&quot;&gt;流&lt;/font&gt;&lt;/div&gt;&lt;div&gt;&lt;font style=&quot;font-size: 20px&quot;&gt;趋&lt;/font&gt;&lt;/div&gt;&lt;div&gt;&lt;font style=&quot;font-size: 20px&quot;&gt;势&lt;/font&gt;&lt;/div&gt;&lt;div&gt;&lt;font style=&quot;font-size: 20px&quot;&gt;展&lt;/font&gt;&lt;/div&gt;&lt;div&gt;&lt;font style=&quot;font-size: 20px&quot;&gt;示&lt;/font&gt;&lt;/div&gt;&lt;/div&gt;" style="rounded=0;whiteSpace=wrap;html=1;strokeWidth=2;direction=south;" parent="1" vertex="1">
          <mxGeometry x="1120" y="590" width="50" height="300" as="geometry" />
        </mxCell>
        <mxCell id="O2EC_n9IJ33S0w39dAJx-21" value="&lt;font style=&quot;font-size: 20px&quot;&gt;不&lt;/font&gt;&lt;div&gt;&lt;font style=&quot;font-size: 20px&quot;&gt;同&lt;/font&gt;&lt;/div&gt;&lt;div&gt;&lt;font style=&quot;font-size: 20px&quot;&gt;站&lt;/font&gt;&lt;/div&gt;&lt;div&gt;&lt;font style=&quot;font-size: 20px&quot;&gt;点&lt;/font&gt;&lt;/div&gt;&lt;div&gt;&lt;font style=&quot;font-size: 20px&quot;&gt;信&lt;/font&gt;&lt;/div&gt;&lt;div&gt;&lt;font style=&quot;font-size: 20px&quot;&gt;息&lt;/font&gt;&lt;/div&gt;&lt;div&gt;&lt;font style=&quot;font-size: 20px&quot;&gt;比&lt;/font&gt;&lt;/div&gt;&lt;div&gt;&lt;font style=&quot;font-size: 20px&quot;&gt;对&lt;/font&gt;&lt;/div&gt;" style="rounded=0;whiteSpace=wrap;html=1;strokeWidth=2;direction=south;" parent="1" vertex="1">
          <mxGeometry x="1200" y="590" width="50" height="300" as="geometry" />
        </mxCell>
        <mxCell id="zT2nQ4EYJUD7dQ0RjYFr-31" style="edgeStyle=orthogonalEdgeStyle;rounded=0;orthogonalLoop=1;jettySize=auto;html=1;entryX=0;entryY=0.5;entryDx=0;entryDy=0;" edge="1" parent="1" source="O2EC_n9IJ33S0w39dAJx-22" target="O2EC_n9IJ33S0w39dAJx-26">
          <mxGeometry relative="1" as="geometry" />
        </mxCell>
        <mxCell id="zT2nQ4EYJUD7dQ0RjYFr-32" style="edgeStyle=orthogonalEdgeStyle;rounded=0;orthogonalLoop=1;jettySize=auto;html=1;entryX=0;entryY=0.5;entryDx=0;entryDy=0;" edge="1" parent="1" source="O2EC_n9IJ33S0w39dAJx-22" target="O2EC_n9IJ33S0w39dAJx-27">
          <mxGeometry relative="1" as="geometry" />
        </mxCell>
        <mxCell id="O2EC_n9IJ33S0w39dAJx-22" value="&lt;span style=&quot;font-size: 20px&quot;&gt;调度路径规划&lt;/span&gt;" style="rounded=0;whiteSpace=wrap;html=1;strokeWidth=2;" parent="1" vertex="1">
          <mxGeometry x="1380" y="530" width="160" height="50" as="geometry" />
        </mxCell>
        <mxCell id="zT2nQ4EYJUD7dQ0RjYFr-35" style="edgeStyle=orthogonalEdgeStyle;rounded=0;orthogonalLoop=1;jettySize=auto;html=1;entryX=0;entryY=0.5;entryDx=0;entryDy=0;" edge="1" parent="1" source="O2EC_n9IJ33S0w39dAJx-23" target="656GvTyZeaLxTbCeaER_-1">
          <mxGeometry relative="1" as="geometry" />
        </mxCell>
        <mxCell id="zT2nQ4EYJUD7dQ0RjYFr-36" style="edgeStyle=orthogonalEdgeStyle;rounded=0;orthogonalLoop=1;jettySize=auto;html=1;entryX=0;entryY=0.5;entryDx=0;entryDy=0;" edge="1" parent="1" source="O2EC_n9IJ33S0w39dAJx-23" target="O2EC_n9IJ33S0w39dAJx-25">
          <mxGeometry relative="1" as="geometry" />
        </mxCell>
        <mxCell id="zT2nQ4EYJUD7dQ0RjYFr-37" style="edgeStyle=orthogonalEdgeStyle;rounded=0;orthogonalLoop=1;jettySize=auto;html=1;entryX=0;entryY=0.5;entryDx=0;entryDy=0;" edge="1" parent="1" source="O2EC_n9IJ33S0w39dAJx-23" target="O2EC_n9IJ33S0w39dAJx-24">
          <mxGeometry relative="1" as="geometry" />
        </mxCell>
        <mxCell id="O2EC_n9IJ33S0w39dAJx-23" value="&lt;span style=&quot;font-size: 20px&quot;&gt;单车调度计划制定&lt;/span&gt;" style="rounded=0;whiteSpace=wrap;html=1;strokeWidth=2;" parent="1" vertex="1">
          <mxGeometry x="1590" y="530" width="170" height="50" as="geometry" />
        </mxCell>
        <mxCell id="O2EC_n9IJ33S0w39dAJx-24" value="&lt;span style=&quot;background-color: transparent; color: light-dark(rgb(0, 0, 0), rgb(255, 255, 255)); font-size: 20px;&quot;&gt;调&lt;/span&gt;&lt;div&gt;&lt;span style=&quot;font-size: 20px&quot;&gt;度&lt;/span&gt;&lt;/div&gt;&lt;div&gt;&lt;span style=&quot;font-size: 20px&quot;&gt;计&lt;/span&gt;&lt;/div&gt;&lt;div&gt;&lt;span style=&quot;font-size: 20px&quot;&gt;划&lt;/span&gt;&lt;/div&gt;&lt;div&gt;&lt;span style=&quot;font-size: 20px&quot;&gt;管&lt;/span&gt;&lt;/div&gt;&lt;div&gt;&lt;span style=&quot;font-size: 20px&quot;&gt;理&lt;/span&gt;&lt;/div&gt;" style="rounded=0;whiteSpace=wrap;html=1;strokeWidth=2;direction=south;" parent="1" vertex="1">
          <mxGeometry x="1722.5" y="680.75" width="50" height="300" as="geometry" />
        </mxCell>
        <mxCell id="O2EC_n9IJ33S0w39dAJx-25" value="&lt;span style=&quot;font-size: 20px;&quot;&gt;合&lt;/span&gt;&lt;div&gt;&lt;span style=&quot;font-size: 20px;&quot;&gt;适&lt;/span&gt;&lt;/div&gt;&lt;div&gt;&lt;span style=&quot;font-size: 20px;&quot;&gt;调&lt;/span&gt;&lt;/div&gt;&lt;div&gt;&lt;span style=&quot;font-size: 20px;&quot;&gt;度&lt;/span&gt;&lt;/div&gt;&lt;div&gt;&lt;span style=&quot;font-size: 20px;&quot;&gt;点&lt;/span&gt;&lt;/div&gt;&lt;div&gt;&lt;span style=&quot;font-size: 20px;&quot;&gt;推&lt;/span&gt;&lt;/div&gt;&lt;div&gt;&lt;span style=&quot;font-size: 20px;&quot;&gt;荐&lt;/span&gt;&lt;/div&gt;" style="rounded=0;whiteSpace=wrap;html=1;strokeWidth=2;direction=south;" parent="1" vertex="1">
          <mxGeometry x="1647.5" y="679.25" width="50" height="300" as="geometry" />
        </mxCell>
        <mxCell id="O2EC_n9IJ33S0w39dAJx-26" value="&lt;span style=&quot;font-size: 20px&quot;&gt;导&lt;/span&gt;&lt;div&gt;&lt;span style=&quot;font-size: 20px&quot;&gt;航&lt;/span&gt;&lt;/div&gt;&lt;div&gt;&lt;span style=&quot;font-size: 20px&quot;&gt;具&lt;/span&gt;&lt;/div&gt;&lt;div&gt;&lt;span style=&quot;font-size: 20px; background-color: transparent; color: light-dark(rgb(0, 0, 0), rgb(255, 255, 255));&quot;&gt;体&lt;/span&gt;&lt;/div&gt;&lt;div&gt;&lt;span style=&quot;font-size: 20px; background-color: transparent; color: light-dark(rgb(0, 0, 0), rgb(255, 255, 255));&quot;&gt;路&lt;/span&gt;&lt;/div&gt;&lt;div&gt;&lt;span style=&quot;font-size: 20px; background-color: transparent; color: light-dark(rgb(0, 0, 0), rgb(255, 255, 255));&quot;&gt;径&lt;/span&gt;&lt;/div&gt;&lt;div&gt;&lt;span style=&quot;font-size: 20px;&quot;&gt;生&lt;/span&gt;&lt;/div&gt;&lt;div&gt;&lt;span style=&quot;font-size: 20px;&quot;&gt;成&lt;/span&gt;&lt;/div&gt;" style="rounded=0;whiteSpace=wrap;html=1;strokeWidth=2;direction=south;" parent="1" vertex="1">
          <mxGeometry x="1380" y="677" width="50" height="300" as="geometry" />
        </mxCell>
        <mxCell id="O2EC_n9IJ33S0w39dAJx-27" value="&lt;span style=&quot;font-size: 20px&quot;&gt;路&lt;/span&gt;&lt;div&gt;&lt;span style=&quot;font-size: 20px&quot;&gt;径&lt;/span&gt;&lt;/div&gt;&lt;div&gt;&lt;span style=&quot;font-size: 20px&quot;&gt;途&lt;/span&gt;&lt;/div&gt;&lt;div&gt;&lt;span style=&quot;font-size: 20px&quot;&gt;径&lt;/span&gt;&lt;/div&gt;&lt;div&gt;&lt;span style=&quot;font-size: 20px&quot;&gt;站&lt;/span&gt;&lt;/div&gt;&lt;div&gt;&lt;span style=&quot;font-size: 20px&quot;&gt;点&lt;/span&gt;&lt;/div&gt;&lt;div&gt;&lt;span style=&quot;font-size: 20px&quot;&gt;显&lt;/span&gt;&lt;/div&gt;&lt;div&gt;&lt;span style=&quot;font-size: 20px&quot;&gt;示&lt;/span&gt;&lt;/div&gt;" style="rounded=0;whiteSpace=wrap;html=1;strokeWidth=2;direction=south;" parent="1" vertex="1">
          <mxGeometry x="1490" y="677" width="50" height="300" as="geometry" />
        </mxCell>
        <mxCell id="O2EC_n9IJ33S0w39dAJx-28" value="&lt;span style=&quot;font-size: 20px&quot;&gt;用&lt;/span&gt;&lt;div&gt;&lt;span style=&quot;font-size: 20px&quot;&gt;户&lt;/span&gt;&lt;/div&gt;&lt;div&gt;&lt;span style=&quot;font-size: 20px&quot;&gt;权&lt;/span&gt;&lt;/div&gt;&lt;div&gt;&lt;span style=&quot;font-size: 20px&quot;&gt;限&lt;/span&gt;&lt;/div&gt;&lt;div&gt;&lt;span style=&quot;font-size: 20px&quot;&gt;修&lt;/span&gt;&lt;/div&gt;&lt;div&gt;&lt;span style=&quot;font-size: 20px&quot;&gt;改&lt;/span&gt;&lt;/div&gt;" style="rounded=0;whiteSpace=wrap;html=1;strokeWidth=2;direction=south;" parent="1" vertex="1">
          <mxGeometry x="1850" y="590" width="50" height="300" as="geometry" />
        </mxCell>
        <mxCell id="O2EC_n9IJ33S0w39dAJx-29" value="&lt;span style=&quot;font-size: 20px&quot;&gt;删&lt;/span&gt;&lt;div&gt;&lt;span style=&quot;font-size: 20px&quot;&gt;除&lt;/span&gt;&lt;/div&gt;&lt;div&gt;&lt;span style=&quot;font-size: 20px&quot;&gt;用&lt;/span&gt;&lt;/div&gt;&lt;div&gt;&lt;span style=&quot;font-size: 20px&quot;&gt;户&lt;/span&gt;&lt;/div&gt;" style="rounded=0;whiteSpace=wrap;html=1;strokeWidth=2;direction=south;" parent="1" vertex="1">
          <mxGeometry x="1950" y="590" width="50" height="300" as="geometry" />
        </mxCell>
        <mxCell id="O2EC_n9IJ33S0w39dAJx-80" value="&lt;span style=&quot;font-size: 20px&quot;&gt;周&lt;/span&gt;&lt;div&gt;&lt;span style=&quot;font-size: 20px&quot;&gt;围&lt;/span&gt;&lt;/div&gt;&lt;div&gt;&lt;span style=&quot;font-size: 20px&quot;&gt;单&lt;/span&gt;&lt;/div&gt;&lt;div&gt;&lt;span style=&quot;font-size: 20px&quot;&gt;车&lt;/span&gt;&lt;/div&gt;&lt;div&gt;&lt;span style=&quot;font-size: 20px&quot;&gt;情&lt;/span&gt;&lt;/div&gt;&lt;div&gt;&lt;span style=&quot;font-size: 20px&quot;&gt;况&lt;/span&gt;&lt;/div&gt;&lt;div&gt;&lt;span style=&quot;font-size: 20px&quot;&gt;展&lt;/span&gt;&lt;/div&gt;&lt;div&gt;&lt;span style=&quot;font-size: 20px&quot;&gt;示&lt;/span&gt;&lt;/div&gt;" style="rounded=0;whiteSpace=wrap;html=1;strokeWidth=2;direction=south;" parent="1" vertex="1">
          <mxGeometry x="850" y="680" width="50" height="300" as="geometry" />
        </mxCell>
        <mxCell id="656GvTyZeaLxTbCeaER_-1" value="&lt;span style=&quot;font-size: 20px&quot;&gt;大&lt;/span&gt;&lt;div&gt;&lt;span style=&quot;font-size: 20px&quot;&gt;模&lt;/span&gt;&lt;/div&gt;&lt;div&gt;&lt;span style=&quot;font-size: 20px&quot;&gt;型&lt;/span&gt;&lt;/div&gt;&lt;div&gt;&lt;span style=&quot;font-size: 20px;&quot;&gt;路&lt;/span&gt;&lt;/div&gt;&lt;div&gt;&lt;span style=&quot;font-size: 20px;&quot;&gt;径&lt;/span&gt;&lt;/div&gt;&lt;div&gt;&lt;span style=&quot;font-size: 20px;&quot;&gt;规&lt;/span&gt;&lt;/div&gt;&lt;div&gt;&lt;span style=&quot;font-size: 20px;&quot;&gt;划&lt;/span&gt;&lt;/div&gt;" style="rounded=0;whiteSpace=wrap;html=1;strokeWidth=2;direction=south;" parent="1" vertex="1">
          <mxGeometry x="1577.5" y="679.25" width="50" height="300" as="geometry" />
        </mxCell>
        <mxCell id="656GvTyZeaLxTbCeaER_-4" value="&lt;font style=&quot;font-size: 20px&quot;&gt;预&lt;/font&gt;&lt;div&gt;&lt;font style=&quot;font-size: 20px&quot;&gt;测&lt;/font&gt;&lt;/div&gt;&lt;div&gt;&lt;font style=&quot;font-size: 20px&quot;&gt;效&lt;/font&gt;&lt;/div&gt;&lt;div&gt;&lt;font style=&quot;font-size: 20px&quot;&gt;果&lt;/font&gt;&lt;/div&gt;&lt;div&gt;&lt;font style=&quot;font-size: 20px&quot;&gt;展&lt;/font&gt;&lt;/div&gt;&lt;div&gt;&lt;font style=&quot;font-size: 20px&quot;&gt;示&lt;/font&gt;&lt;/div&gt;" style="rounded=0;whiteSpace=wrap;html=1;strokeWidth=2;direction=south;" parent="1" vertex="1">
          <mxGeometry x="1270" y="590" width="50" height="300" as="geometry" />
        </mxCell>
      </root>
    </mxGraphModel>
  </diagram>
</mxfile>
